<svg xmlns="http://www.w3.org/2000/svg" width="609" height="108" fill="none" viewBox="0 0 609 108"><rect width="463" height="106" x="146" y="2" fill="#363636"/><rect width="254" height="106" x="355" y="2" fill="#FC636E"/><path fill="#fff" d="M180.62 77.368C177.428 77.368 174.616 76.8107 172.184 75.696C169.752 74.5813 167.877 73.036 166.56 71.06C165.243 69.0333 164.584 66.7027 164.584 64.068C164.584 61.8387 165.04 59.812 165.952 57.988C166.915 56.164 168.181 54.72 169.752 53.656C171.373 52.592 173.147 52.06 175.072 52.06C176.845 52.06 178.34 52.516 179.556 53.428C180.772 54.2893 181.532 55.5053 181.836 57.076C179.201 57.076 177.099 57.7853 175.528 59.204C173.957 60.572 173.172 62.4467 173.172 64.828C173.172 67.0067 173.831 68.7547 175.148 70.072C176.465 71.3893 178.213 72.048 180.392 72.048C183.077 72.048 185.281 71.1613 187.004 69.388C188.777 67.564 189.664 65.284 189.664 62.548C189.664 60.1667 189.005 57.912 187.688 55.784C186.371 53.656 184.395 51.072 181.76 48.032C179.024 44.8907 176.947 42.2053 175.528 39.976C174.16 37.696 173.476 35.2133 173.476 32.528C173.476 29.8933 174.211 27.5373 175.68 25.46C177.149 23.332 179.176 21.66 181.76 20.444C184.344 19.228 187.257 18.62 190.5 18.62C194.604 18.62 197.872 19.5827 200.304 21.508C202.787 23.4333 204.028 26.0173 204.028 29.26C204.028 31.388 203.496 33.1107 202.432 34.428C201.368 35.7453 199.975 36.404 198.252 36.404C196.327 36.404 194.781 35.6187 193.616 34.048C194.579 33.3387 195.339 32.4013 195.896 31.236C196.453 30.0707 196.732 28.8547 196.732 27.588C196.732 25.9667 196.251 24.6747 195.288 23.712C194.325 22.7493 193.008 22.268 191.336 22.268C189.309 22.268 187.637 23.0027 186.32 24.472C185.053 25.8907 184.42 27.7147 184.42 29.944C184.42 31.9707 185.003 33.8707 186.168 35.644C187.333 37.3667 189.157 39.596 191.64 42.332C193.667 44.5107 195.288 46.3853 196.504 47.956C197.771 49.5267 198.835 51.3507 199.696 53.428C200.608 55.4547 201.064 57.6587 201.064 60.04C201.064 63.2827 200.152 66.2213 198.328 68.856C196.555 71.4907 194.097 73.568 190.956 75.088C187.865 76.608 184.42 77.368 180.62 77.368ZM232.78 76.456C229.689 76.456 227.409 75.6453 225.94 74.024C224.521 72.352 223.812 70.3 223.812 67.868C223.812 66.804 223.938 65.6133 224.192 64.296C224.445 62.928 224.698 61.6107 224.952 60.344C225.256 59.0773 225.458 58.2667 225.56 57.912C225.965 56.1387 226.345 54.3907 226.7 52.668C227.054 50.9453 227.232 49.552 227.232 48.488C227.232 45.904 226.32 44.612 224.496 44.612C223.178 44.612 222.013 45.2707 221 46.588C219.986 47.8547 219.176 49.5267 218.568 51.604L213.4 76H202.456L210.512 38H221.456L220.62 41.952C223.153 39.1147 226.117 37.696 229.512 37.696C232.096 37.696 234.148 38.4053 235.668 39.824C237.188 41.2427 237.948 43.396 237.948 46.284C237.948 47.7533 237.77 49.4 237.416 51.224C237.061 52.9973 236.554 55.176 235.896 57.76C235.49 59.3307 235.11 60.876 234.756 62.396C234.452 63.8653 234.3 65.0307 234.3 65.892C234.3 66.9053 234.528 67.6907 234.984 68.248C235.44 68.8053 236.225 69.084 237.34 69.084C238.86 69.084 240.076 68.552 240.988 67.488C241.9 66.3733 242.812 64.676 243.724 62.396H246.916C245.041 67.9693 242.862 71.7187 240.38 73.644C237.948 75.5187 235.414 76.456 232.78 76.456ZM252.835 76.456C249.947 76.456 247.54 75.468 245.615 73.492C243.69 71.516 242.727 68.4253 242.727 64.22C242.727 60.4707 243.462 56.544 244.931 52.44C246.451 48.2853 248.68 44.7893 251.619 41.952C254.608 39.064 258.155 37.62 262.259 37.62C264.336 37.62 265.882 37.9747 266.895 38.684C267.908 39.3933 268.415 40.3307 268.415 41.496V42.028L269.251 38H280.195L274.723 63.84C274.52 64.6 274.419 65.4107 274.419 66.272C274.419 68.4507 275.458 69.54 277.535 69.54C278.954 69.54 280.17 68.8813 281.183 67.564C282.247 66.2467 283.083 64.524 283.691 62.396H286.883C285.008 67.868 282.678 71.592 279.891 73.568C277.155 75.4933 274.394 76.456 271.607 76.456C269.479 76.456 267.756 75.8733 266.439 74.708C265.172 73.492 264.412 71.744 264.159 69.464C262.69 71.5413 261.043 73.2387 259.219 74.556C257.446 75.8227 255.318 76.456 252.835 76.456ZM257.775 69.084C259.042 69.084 260.283 68.5013 261.499 67.336C262.766 66.12 263.627 64.4733 264.083 62.396L267.731 45.22C267.731 44.5613 267.478 43.928 266.971 43.32C266.464 42.6613 265.679 42.332 264.615 42.332C262.588 42.332 260.764 43.5227 259.143 45.904C257.522 48.2347 256.255 51.072 255.343 54.416C254.431 57.7093 253.975 60.6227 253.975 63.156C253.975 65.6893 254.33 67.3107 255.039 68.02C255.799 68.7293 256.711 69.084 257.775 69.084ZM289.495 35.188H300.439L299.223 40.888C301.756 38.7093 304.72 37.62 308.115 37.62C310.952 37.62 313.207 38.5573 314.879 40.432C316.551 42.3067 317.387 45.372 317.387 49.628C317.387 53.6307 316.804 57.684 315.639 61.788C314.473 65.8413 312.497 69.312 309.711 72.2C306.924 75.0373 303.251 76.456 298.691 76.456C295.448 76.456 293.295 75.544 292.231 73.72L288.279 92.264L276.803 95L289.495 35.188ZM296.335 69.844C298.767 69.844 300.768 68.704 302.339 66.424C303.96 64.144 305.125 61.4333 305.835 58.292C306.595 55.1 306.975 52.136 306.975 49.4C306.975 45.1947 305.708 43.092 303.175 43.092C302.263 43.092 301.325 43.4213 300.363 44.08C299.451 44.7387 298.64 45.6507 297.931 46.816L293.447 68.096C293.852 69.2613 294.815 69.844 296.335 69.844ZM386.255 91.732C382.557 91.732 379.567 90.7693 377.287 88.844C375.058 86.9693 373.943 84.4867 373.943 81.396C373.943 79.4707 374.399 77.6973 375.311 76.076C376.223 74.4547 377.465 73.188 379.035 72.276C380.606 71.3133 382.329 70.832 384.203 70.832C386.129 70.832 387.674 71.3133 388.839 72.276C390.055 73.2387 390.663 74.5053 390.663 76.076C390.663 77.292 390.385 78.2547 389.827 78.964C389.371 78.356 388.738 77.8747 387.927 77.52C387.167 77.1653 386.357 76.988 385.495 76.988C383.975 76.988 382.734 77.4947 381.771 78.508C380.809 79.5213 380.327 80.8387 380.327 82.46C380.327 84.0813 380.783 85.3987 381.695 86.412C382.658 87.4253 383.849 87.932 385.267 87.932C387.041 87.932 388.561 87.1467 389.827 85.576C391.094 84.0053 392.057 81.6747 392.715 78.584L396.515 61.788H396.211C394.843 63.7133 393.171 65.1827 391.195 66.196C389.27 67.2093 387.142 67.716 384.811 67.716C381.873 67.716 379.289 66.9307 377.059 65.36C374.83 63.7893 373.107 61.56 371.891 58.672C370.726 55.7333 370.143 52.3387 370.143 48.488C370.143 42.9147 371.359 37.848 373.791 33.288C376.223 28.6773 379.567 25.0547 383.823 22.42C388.079 19.7853 392.766 18.468 397.883 18.468C402.19 18.468 405.585 19.4053 408.067 21.28C410.601 23.1547 411.867 25.7133 411.867 28.956C411.867 31.1347 411.335 32.8827 410.271 34.2C409.207 35.5173 407.814 36.176 406.091 36.176C405.129 36.176 404.217 35.9733 403.355 35.568C402.545 35.1627 401.861 34.58 401.303 33.82C402.215 33.212 402.975 32.2493 403.583 30.932C404.242 29.564 404.571 28.196 404.571 26.828C404.571 25.308 404.115 24.1427 403.203 23.332C402.342 22.4707 401.101 22.04 399.479 22.04C396.541 22.04 393.703 23.3573 390.967 25.992C388.231 28.576 386.027 31.9707 384.355 36.176C382.683 40.3813 381.847 44.7893 381.847 49.4C381.847 53.2 382.455 56.1133 383.671 58.14C384.887 60.116 386.635 61.104 388.915 61.104C391.651 61.104 394.058 59.66 396.135 56.772C398.263 53.884 399.961 49.6787 401.227 44.156L410.195 44.232L404.647 69.768C403.026 77.3173 400.721 82.8653 397.731 86.412C394.793 89.9587 390.967 91.732 386.255 91.732ZM421.757 76.456C418.869 76.456 416.462 75.468 414.537 73.492C412.611 71.516 411.649 68.4253 411.649 64.22C411.649 60.4707 412.383 56.544 413.853 52.44C415.373 48.2853 417.602 44.7893 420.541 41.952C423.53 39.064 427.077 37.62 431.181 37.62C433.258 37.62 434.803 37.9747 435.817 38.684C436.83 39.3933 437.337 40.3307 437.337 41.496V42.028L438.173 38H449.117L443.645 63.84C443.442 64.6 443.341 65.4107 443.341 66.272C443.341 68.4507 444.379 69.54 446.457 69.54C447.875 69.54 449.091 68.8813 450.105 67.564C451.169 66.2467 452.005 64.524 452.613 62.396H455.805C453.93 67.868 451.599 71.592 448.813 73.568C446.077 75.4933 443.315 76.456 440.529 76.456C438.401 76.456 436.678 75.8733 435.361 74.708C434.094 73.492 433.334 71.744 433.081 69.464C431.611 71.5413 429.965 73.2387 428.141 74.556C426.367 75.8227 424.239 76.456 421.757 76.456ZM426.697 69.084C427.963 69.084 429.205 68.5013 430.421 67.336C431.687 66.12 432.549 64.4733 433.005 62.396L436.653 45.22C436.653 44.5613 436.399 43.928 435.893 43.32C435.386 42.6613 434.601 42.332 433.537 42.332C431.51 42.332 429.686 43.5227 428.065 45.904C426.443 48.2347 425.177 51.072 424.265 54.416C423.353 57.7093 422.897 60.6227 422.897 63.156C422.897 65.6893 423.251 67.3107 423.961 68.02C424.721 68.7293 425.633 69.084 426.697 69.084ZM460.165 76.456C457.733 76.456 455.757 75.696 454.237 74.176C452.767 72.656 452.033 70.376 452.033 67.336C452.033 66.0693 452.235 64.4227 452.641 62.396L460.773 24.32L472.021 22.8L463.281 63.84C463.078 64.6 462.977 65.4107 462.977 66.272C462.977 67.2853 463.205 68.02 463.661 68.476C464.167 68.8813 464.978 69.084 466.093 69.084C467.562 69.084 468.93 68.476 470.197 67.26C471.463 65.9933 472.375 64.372 472.933 62.396H476.125C474.25 67.868 471.843 71.592 468.905 73.568C465.966 75.4933 463.053 76.456 460.165 76.456ZM480.426 76.456C477.994 76.456 476.018 75.696 474.498 74.176C473.029 72.656 472.294 70.376 472.294 67.336C472.294 66.0693 472.497 64.4227 472.902 62.396L481.034 24.32L492.282 22.8L483.542 63.84C483.34 64.6 483.238 65.4107 483.238 66.272C483.238 67.2853 483.466 68.02 483.922 68.476C484.429 68.8813 485.24 69.084 486.354 69.084C487.824 69.084 489.192 68.476 490.458 67.26C491.725 65.9933 492.637 64.372 493.194 62.396H496.386C494.512 67.868 492.105 71.592 489.166 73.568C486.228 75.4933 483.314 76.456 480.426 76.456ZM504.032 76.456C500.283 76.456 497.369 75.4933 495.292 73.568C493.215 71.592 492.176 68.5267 492.176 64.372C492.176 60.876 492.86 57.0253 494.228 52.82C495.596 48.6147 497.825 44.992 500.916 41.952C504.007 38.8613 507.933 37.316 512.696 37.316C518.269 37.316 521.056 39.748 521.056 44.612C521.056 47.4493 520.245 50.0587 518.624 52.44C517.003 54.8213 514.849 56.7467 512.164 58.216C509.479 59.6347 506.616 60.4453 503.576 60.648C503.475 62.168 503.424 63.1813 503.424 63.688C503.424 66.1707 503.855 67.868 504.716 68.78C505.577 69.6413 506.971 70.072 508.896 70.072C511.632 70.072 513.963 69.4387 515.888 68.172C517.864 66.9053 520.017 64.98 522.348 62.396H524.932C519.308 71.7693 512.341 76.456 504.032 76.456ZM504.184 57C506.059 56.8987 507.832 56.24 509.504 55.024C511.227 53.808 512.595 52.2627 513.608 50.388C514.672 48.5133 515.204 46.5373 515.204 44.46C515.204 42.3827 514.571 41.344 513.304 41.344C511.48 41.344 509.681 42.94 507.908 46.132C506.185 49.324 504.944 52.9467 504.184 57ZM527.5 38H538.444L537.456 42.712C539.179 41.192 540.724 40.0267 542.092 39.216C543.511 38.4053 545.031 38 546.652 38C548.273 38 549.54 38.5573 550.452 39.672C551.415 40.7867 551.896 42.1293 551.896 43.7C551.896 45.1693 551.415 46.4613 550.452 47.576C549.489 48.6907 548.147 49.248 546.424 49.248C545.309 49.248 544.549 48.9947 544.144 48.488C543.789 47.9307 543.511 47.1453 543.308 46.132C543.156 45.4733 543.004 44.992 542.852 44.688C542.7 44.384 542.421 44.232 542.016 44.232C540.952 44.232 540.04 44.46 539.28 44.916C538.571 45.3213 537.633 46.056 536.468 47.12L530.388 76H519.444L527.5 38ZM562.762 95C560.381 95 558.278 94.2147 556.454 92.644C554.681 91.124 553.794 89.1733 553.794 86.792C553.794 84.5627 554.352 82.7387 555.466 81.32C556.581 79.9013 558.025 78.7867 559.798 77.976C561.572 77.1653 563.953 76.304 566.942 75.392L567.702 72.048C565.118 74.9867 562.028 76.456 558.43 76.456C555.998 76.456 554.022 75.696 552.502 74.176C551.033 72.656 550.298 70.376 550.298 67.336C550.298 66.0693 550.501 64.4227 550.906 62.396L556.074 38H567.018L561.546 63.84C561.394 64.448 561.318 65.0813 561.318 65.74C561.318 67.9693 562.078 69.084 563.598 69.084C565.017 69.084 566.233 68.5013 567.246 67.336C568.26 66.12 569.07 64.4733 569.678 62.396L574.846 38H585.866L576.594 82.08C575.581 86.944 573.782 90.3133 571.198 92.188C568.665 94.0627 565.853 95 562.762 95ZM561.014 88.236C561.926 88.236 562.788 87.7547 563.598 86.792C564.409 85.88 565.042 84.3853 565.498 82.308L566.41 77.824C563.725 78.736 561.648 79.8 560.178 81.016C558.709 82.232 557.974 83.8027 557.974 85.728C557.974 86.336 558.278 86.8933 558.886 87.4C559.494 87.9573 560.204 88.236 561.014 88.236Z"/><g clip-path="url(#clip0_204_5)"><path fill="#FC636E" d="M83.3333 85.7778V88.5555C83.3333 93.158 79.6024 96.8889 75 96.8889H8.33333C3.7309 96.8889 0 93.158 0 88.5555V44.1111C0 39.5087 3.7309 35.7778 8.33333 35.7778H11.1111V71.8889C11.1111 79.5472 17.3417 85.7778 25 85.7778H83.3333ZM100 71.8889V27.4444C100 22.842 96.2691 19.1111 91.6667 19.1111H25C20.3976 19.1111 16.6667 22.842 16.6667 27.4444V71.8889C16.6667 76.4913 20.3976 80.2222 25 80.2222H91.6667C96.2691 80.2222 100 76.4913 100 71.8889ZM44.4444 35.7778C44.4444 40.3802 40.7135 44.1111 36.1111 44.1111C31.5087 44.1111 27.7778 40.3802 27.7778 35.7778C27.7778 31.1753 31.5087 27.4444 36.1111 27.4444C40.7135 27.4444 44.4444 31.1753 44.4444 35.7778ZM27.7778 60.7778L37.4158 51.1398C38.2293 50.3262 39.5484 50.3262 40.3621 51.1398L47.2222 58L70.7491 34.4731C71.5627 33.6596 72.8818 33.6596 73.6955 34.4731L88.8889 49.6667V69.1111H27.7778V60.7778Z"/></g><defs><clipPath id="clip0_204_5"><rect width="100" height="100" fill="#fff" transform="translate(0 8)"/></clipPath></defs></svg>